<svg preserveAspectRatio="none" width="100%" height="100%" overflow="visible" style="display: block;" viewBox="0 0 15.7048 14.625" fill="none" xmlns="http://www.w3.org/2000/svg">
<g id="Group">
<path id="Vector" d="M9.5625 5.0625L9.0945 4.75048C8.97938 4.92309 8.96865 5.14502 9.06653 5.32792C9.16448 5.51082 9.35505 5.625 9.5625 5.625V5.0625ZM8.0625 0.5625V0C7.86064 0 7.67426 0.108161 7.57411 0.283422L8.0625 0.5625ZM2.0625 4.875H3.5625V3.75H2.0625V4.875ZM4.5 5.8125V12.5625H5.625V5.8125H4.5ZM3.5625 13.5H2.0625V14.625H3.5625V13.5ZM1.125 12.5625V5.8125H0V12.5625H1.125ZM2.0625 13.5C1.54473 13.5 1.125 13.0803 1.125 12.5625H0C0 13.7016 0.923413 14.625 2.0625 14.625V13.5ZM4.5 12.5625C4.5 13.0803 4.08027 13.5 3.5625 13.5V14.625C4.70159 14.625 5.625 13.7016 5.625 12.5625H4.5ZM3.5625 4.875C4.08027 4.875 4.5 5.29473 4.5 5.8125H5.625C5.625 4.67341 4.70159 3.75 3.5625 3.75V4.875ZM2.0625 3.75C0.923413 3.75 0 4.67341 0 5.8125H1.125C1.125 5.29473 1.54473 4.875 2.0625 4.875V3.75ZM8.22082 14.625H10.9702V13.5H8.22082V14.625ZM14.4263 11.9265L15.6422 7.06273L14.5508 6.78988L13.3349 11.6537L14.4263 11.9265ZM13.6413 4.5H9.5625V5.625H13.6413V4.5ZM10.0305 5.37452L11.0872 3.78958L10.1511 3.16554L9.0945 4.75048L10.0305 5.37452ZM9.05903 0H8.0625V1.125H9.05903V0ZM7.57411 0.283422L4.67293 5.36049L5.6497 5.91865L8.5509 0.841578L7.57411 0.283422ZM4.5 6.01167V12.1611H5.625V6.01167H4.5ZM5.08445 13.2532L6.24471 14.0266L6.86875 13.0907L5.7085 12.3171L5.08445 13.2532ZM4.5 12.1611C4.5 12.5999 4.71932 13.0097 5.08445 13.2532L5.7085 12.3171C5.65633 12.2824 5.625 12.2238 5.625 12.1611H4.5ZM15.6422 7.06273C15.9677 5.76099 14.9831 4.5 13.6413 4.5V5.625C14.2513 5.625 14.6988 6.19818 14.5508 6.78988L15.6422 7.06273ZM10.9702 14.625C12.6049 14.625 14.0298 13.5125 14.4263 11.9265L13.3349 11.6537C13.0636 12.7388 12.0886 13.5 10.9702 13.5V14.625ZM8.22082 13.5C7.7396 13.5 7.26915 13.3576 6.86875 13.0907L6.24471 14.0266C6.82991 14.4168 7.5175 14.625 8.22082 14.625V13.5ZM11.0872 3.78958C12.167 2.16973 11.0059 0 9.05903 0V1.125C10.1073 1.125 10.7326 2.29331 10.1511 3.16554L11.0872 3.78958ZM4.67293 5.36049C4.5596 5.5588 4.5 5.78326 4.5 6.01167H5.625C5.625 5.97905 5.63351 5.94697 5.6497 5.91865L4.67293 5.36049Z" fill="var(--fill-0, #4E5969)"/>
</g>
</svg>
