<svg preserveAspectRatio="none" width="100%" height="100%" overflow="visible" style="display: block;" viewBox="0 0 18 18" fill="none" xmlns="http://www.w3.org/2000/svg">
<g id="Frame">
<path id="Vector (Stroke)" d="M8.40039 11.625V6.375C8.40039 6.04363 8.66863 5.77539 9 5.77539C9.33137 5.77539 9.59961 6.04363 9.59961 6.375V11.625C9.59961 11.9564 9.33137 12.2246 9 12.2246C8.66863 12.2246 8.40039 11.9564 8.40039 11.625Z" fill="var(--fill-0, #4E5969)"/>
<path id="Vector (Stroke)_2" d="M11.7754 13.875V4.125C11.7754 3.79363 12.0436 3.52539 12.375 3.52539C12.7064 3.52539 12.9746 3.79363 12.9746 4.125V13.875C12.9746 14.2064 12.7064 14.4746 12.375 14.4746C12.0436 14.4746 11.7754 14.2064 11.7754 13.875Z" fill="var(--fill-0, #4E5969)"/>
<path id="Vector (Stroke)_3" d="M1.65039 11.625V6.375C1.65039 6.04363 1.91863 5.77539 2.25 5.77539C2.58137 5.77539 2.84961 6.04363 2.84961 6.375V11.625C2.84961 11.9564 2.58137 12.2246 2.25 12.2246C1.91863 12.2246 1.65039 11.9564 1.65039 11.625Z" fill="var(--fill-0, #4E5969)"/>
<path id="Vector (Stroke)_4" d="M15.1504 11.25V6.75C15.1504 6.41863 15.4186 6.15039 15.75 6.15039C16.0814 6.15039 16.3496 6.41863 16.3496 6.75V11.25C16.3496 11.5814 16.0814 11.8496 15.75 11.8496C15.4186 11.8496 15.1504 11.5814 15.1504 11.25Z" fill="var(--fill-0, #4E5969)"/>
<path id="Vector (Stroke)_5" d="M5.02539 16.5V1.5C5.02539 1.16863 5.29363 0.900391 5.625 0.900391C5.95637 0.900391 6.22461 1.16863 6.22461 1.5V16.5C6.22461 16.8314 5.95637 17.0996 5.625 17.0996C5.29363 17.0996 5.02539 16.8314 5.02539 16.5Z" fill="var(--fill-0, #4E5969)"/>
</g>
</svg>
