<svg preserveAspectRatio="none" width="100%" height="100%" overflow="visible" style="display: block;" viewBox="0 0 16.1303 14.625" fill="none" xmlns="http://www.w3.org/2000/svg">
<g id="Group">
<path id="Vector" d="M8.06519 11.8125C8.4794 11.8125 8.81519 11.4767 8.81519 11.0625C8.81519 10.6483 8.4794 10.3125 8.06519 10.3125C7.65097 10.3125 7.31519 10.6483 7.31519 11.0625C7.31519 11.4767 7.65097 11.8125 8.06519 11.8125Z" fill="var(--fill-0, #4E5969)"/>
<path id="Vector_2" d="M8.62759 5.06248C8.62759 4.75182 8.37581 4.49998 8.06512 4.49998C7.75446 4.49998 7.50262 4.75182 7.50262 5.06248H8.62759ZM7.50262 8.8125C7.50262 9.12315 7.75446 9.375 8.06512 9.375C8.37581 9.375 8.62759 9.12315 8.62759 8.8125H7.50262ZM9.10046 1.71538L14.8545 11.8153L15.832 11.2583L10.0779 1.15849L9.10046 1.71538ZM13.8192 13.5H2.31108V14.625H13.8192V13.5ZM1.27581 11.8153L7.0299 1.71539L6.0524 1.15849L0.298321 11.2584L1.27581 11.8153ZM2.31108 13.5C1.38867 13.5 0.855972 12.5522 1.27581 11.8153L0.298321 11.2584C-0.572991 12.7877 0.574848 14.625 2.31108 14.625V13.5ZM14.8545 11.8153C15.2744 12.5522 14.7417 13.5 13.8192 13.5V14.625C15.5555 14.625 16.7033 12.7877 15.832 11.2583L14.8545 11.8153ZM10.0779 1.15849C9.19789 -0.386168 6.93242 -0.38616 6.0524 1.15849L7.0299 1.71539C7.47837 0.928203 8.65196 0.928203 9.10046 1.71538L10.0779 1.15849ZM7.50262 5.06248V8.8125H8.62759V5.06248H7.50262Z" fill="var(--fill-0, #4E5969)"/>
</g>
</svg>
