<svg preserveAspectRatio="none" width="100%" height="100%" overflow="visible" style="display: block;" viewBox="0 0 14.3333 14.3333" fill="none" xmlns="http://www.w3.org/2000/svg">
<g id="Group">
<path id="Vector" d="M7.16667 13.3333H3.16667V14.3333H7.16667V13.3333ZM1 11.1667V7.16667H0V11.1667H1ZM3.16667 13.3333C1.97005 13.3333 1 12.3633 1 11.1667H0C0 12.9156 1.41777 14.3333 3.16667 14.3333V13.3333ZM9.33333 11.1667C9.33333 12.3633 8.36327 13.3333 7.16667 13.3333V14.3333C8.9156 14.3333 10.3333 12.9156 10.3333 11.1667H9.33333ZM7.16667 5C8.36327 5 9.33333 5.97005 9.33333 7.16667H10.3333C10.3333 5.41777 8.9156 4 7.16667 4V5ZM3.16667 4C1.41777 4 0 5.41777 0 7.16667H1C1 5.97005 1.97005 5 3.16667 5V4ZM7.16667 1H11.1667V0H7.16667V1ZM13.3333 3.16667V7.16667H14.3333V3.16667H13.3333ZM13.3333 7.16667C13.3333 8.36327 12.3633 9.33333 11.1667 9.33333V10.3333C12.9156 10.3333 14.3333 8.9156 14.3333 7.16667H13.3333ZM11.1667 1C12.3633 1 13.3333 1.97005 13.3333 3.16667H14.3333C14.3333 1.41777 12.9156 0 11.1667 0V1ZM7.16667 0C5.41777 0 4 1.41777 4 3.16667H5C5 1.97005 5.97005 1 7.16667 1V0ZM5 4.5V3.16667H4V4.5H5ZM3.16667 5H4.5V4H3.16667V5ZM4.5 5H7.16667V4H4.5V5ZM11.1667 9.33333H9.83333V10.3333H11.1667V9.33333ZM9.33333 7.16667V9.83333H10.3333V7.16667H9.33333ZM9.33333 9.83333V11.1667H10.3333V9.83333H9.33333Z" fill="var(--fill-0, #4E5969)"/>
</g>
</svg>
