<svg preserveAspectRatio="none" width="100%" height="100%" overflow="visible" style="display: block;" viewBox="0 0 15.7049 14.625" fill="none" xmlns="http://www.w3.org/2000/svg">
<g id="Group">
<path id="Vector" d="M9.56248 5.0625L9.09444 4.7505C8.97937 4.92307 8.96865 5.145 9.06653 5.32793C9.16442 5.51085 9.35503 5.625 9.56248 5.625V5.0625ZM8.06248 0.5625V0C7.86061 0 7.67424 0.108149 7.5741 0.283424L8.06248 0.5625ZM2.0625 5.625H3.5625V4.5H2.0625V5.625ZM4.5 6.5625V11.8125H5.625V6.5625H4.5ZM3.5625 12.75H2.0625V13.875H3.5625V12.75ZM1.125 11.8125V6.5625H0V11.8125H1.125ZM2.0625 12.75C1.5447 12.75 1.125 12.3303 1.125 11.8125H0C0 12.9516 0.9234 13.875 2.0625 13.875V12.75ZM4.5 11.8125C4.5 12.3303 4.08022 12.75 3.5625 12.75V13.875C4.70152 13.875 5.625 12.9516 5.625 11.8125H4.5ZM3.5625 5.625C4.08022 5.625 4.5 6.0447 4.5 6.5625H5.625C5.625 5.4234 4.7016 4.5 3.5625 4.5V5.625ZM2.0625 4.5C0.9234 4.5 0 5.4234 0 6.5625H1.125C1.125 6.0447 1.5447 5.625 2.0625 5.625V4.5ZM8.2208 14.625H10.9701V13.5H8.2208V14.625ZM14.4263 11.9265L15.6422 7.06273L14.5508 6.78988L13.3349 11.6537L14.4263 11.9265ZM13.6413 4.5H9.56248V5.625H13.6413V4.5ZM10.0305 5.3745L11.0871 3.7896L10.1511 3.16552L9.09444 4.7505L10.0305 5.3745ZM9.059 0H8.06248V1.125H9.059V0ZM7.5741 0.283424L4.67287 5.36048L5.64967 5.91862L8.55086 0.841576L7.5741 0.283424ZM4.5 6.0117V12.1611H5.625V6.0117H4.5ZM5.0844 13.2532L6.24465 14.0267L6.86872 13.0906L5.70847 12.3171L5.0844 13.2532ZM4.5 12.1611C4.5 12.5999 4.7193 13.0098 5.0844 13.2532L5.70847 12.3171C5.65627 12.2823 5.625 12.2238 5.625 12.1611H4.5ZM15.6422 7.06273C15.9677 5.76097 14.9831 4.5 13.6413 4.5V5.625C14.2512 5.625 14.6987 6.19815 14.5508 6.78988L15.6422 7.06273ZM10.9701 14.625C12.6049 14.625 14.0298 13.5124 14.4263 11.9265L13.3349 11.6537C13.0636 12.7388 12.0886 13.5 10.9701 13.5V14.625ZM8.2208 13.5C7.73958 13.5 7.26915 13.3576 6.86872 13.0906L6.24465 14.0267C6.82987 14.4168 7.51747 14.625 8.2208 14.625V13.5ZM11.0871 3.7896C12.167 2.16975 11.0058 0 9.059 0V1.125C10.1073 1.125 10.7326 2.29335 10.1511 3.16552L11.0871 3.7896ZM4.67287 5.36048C4.55955 5.55878 4.5 5.78325 4.5 6.0117H5.625C5.625 5.97907 5.63347 5.94697 5.64967 5.91862L4.67287 5.36048Z" fill="var(--fill-0, #4E5969)"/>
</g>
</svg>
