<svg preserveAspectRatio="none" width="100%" height="100%" overflow="visible" style="display: block;" viewBox="0 0 16.125 16.125" fill="none" xmlns="http://www.w3.org/2000/svg">
<g id="Group">
<path id="Vector" d="M11.5309 2.05277C11.7998 2.20832 12.1438 2.11643 12.2994 1.84753C12.455 1.57861 12.3631 1.23452 12.0941 1.07896L11.5309 2.05277ZM15.6172 5.2406C15.5085 4.94959 15.1844 4.80185 14.8934 4.91059C14.6024 5.01933 14.4547 5.34339 14.5634 5.6344L15.6172 5.2406ZM4.66389 6.12326C4.4213 5.92919 4.06733 5.96852 3.87326 6.21111C3.67919 6.4537 3.71852 6.80767 3.96111 7.00174L4.66389 6.12326ZM15.2306 2.43879C15.4384 2.20788 15.4197 1.85222 15.1888 1.6444C14.9579 1.43658 14.6022 1.45529 14.3944 1.68621L15.2306 2.43879ZM15 8.0625C15 11.894 11.894 15 8.0625 15V16.125C12.5153 16.125 16.125 12.5153 16.125 8.0625H15ZM8.0625 15C4.23103 15 1.125 11.894 1.125 8.0625H0C0 12.5153 3.60971 16.125 8.0625 16.125V15ZM1.125 8.0625C1.125 4.23103 4.23103 1.125 8.0625 1.125V0C3.60971 0 0 3.60971 0 8.0625H1.125ZM8.0625 1.125C9.32708 1.125 10.511 1.46282 11.5309 2.05277L12.0941 1.07896C10.9077 0.392633 9.5301 0 8.0625 0V1.125ZM14.5634 5.6344C14.8455 6.38937 15 7.20725 15 8.0625H16.125C16.125 7.07077 15.9457 6.11963 15.6172 5.2406L14.5634 5.6344ZM3.96111 7.00174L6.60593 9.1176L7.3087 8.23913L4.66389 6.12326L3.96111 7.00174ZM9.42742 8.88683L15.2306 2.43879L14.3944 1.68621L8.59117 8.1342L9.42742 8.88683ZM6.60593 9.1176C7.4591 9.8001 8.69647 9.69893 9.42742 8.88683L8.59117 8.1342C8.259 8.50335 7.69651 8.54933 7.3087 8.23913L6.60593 9.1176Z" fill="var(--fill-0, #4E5969)"/>
</g>
</svg>
