<svg preserveAspectRatio="none" width="100%" height="100%" overflow="visible" style="display: block;" viewBox="0 0 20 20" fill="none" xmlns="http://www.w3.org/2000/svg">
<g id="Frame">
<path id="Vector" d="M7.5 2.5H3.33333C2.8731 2.5 2.5 2.8731 2.5 3.33333V7.5C2.5 7.96025 2.8731 8.33333 3.33333 8.33333H7.5C7.96025 8.33333 8.33333 7.96025 8.33333 7.5V3.33333C8.33333 2.8731 7.96025 2.5 7.5 2.5Z" stroke="var(--stroke-0, #4E5969)" stroke-width="1.8" stroke-linejoin="round"/>
<path id="Vector_2" d="M7.5 11.6667H3.33333C2.8731 11.6667 2.5 12.0398 2.5 12.5V16.6667C2.5 17.1269 2.8731 17.5 3.33333 17.5H7.5C7.96025 17.5 8.33333 17.1269 8.33333 16.6667V12.5C8.33333 12.0398 7.96025 11.6667 7.5 11.6667Z" stroke="var(--stroke-0, #4E5969)" stroke-width="1.8" stroke-linejoin="round"/>
<path id="Vector_3" d="M16.6667 2.5H12.5C12.0398 2.5 11.6667 2.8731 11.6667 3.33333V7.5C11.6667 7.96025 12.0398 8.33333 12.5 8.33333H16.6667C17.1269 8.33333 17.5 7.96025 17.5 7.5V3.33333C17.5 2.8731 17.1269 2.5 16.6667 2.5Z" stroke="var(--stroke-0, #4E5969)" stroke-width="1.8" stroke-linejoin="round"/>
<path id="Vector_4" d="M16.6667 11.6667H12.5C12.0398 11.6667 11.6667 12.0398 11.6667 12.5V16.6667C11.6667 17.1269 12.0398 17.5 12.5 17.5H16.6667C17.1269 17.5 17.5 17.1269 17.5 16.6667V12.5C17.5 12.0398 17.1269 11.6667 16.6667 11.6667Z" stroke="var(--stroke-0, #4E5969)" stroke-width="1.8" stroke-linejoin="round"/>
</g>
</svg>
