<svg preserveAspectRatio="none" width="100%" height="100%" overflow="visible" style="display: block;" viewBox="0 0 18.05 18.0251" fill="none" xmlns="http://www.w3.org/2000/svg">
<g id="phone--android-phone-mobile-device-smartphone-iphone">
<path id="Vector" d="M6.83477 16.4896C6.0666 16.9851 5.15121 17.2011 4.24252 17.1012C3.33385 17.0012 2.48729 16.5915 1.84521 15.9407L1.28388 15.3919C1.03779 15.1401 0.9 14.8021 0.9 14.4501C0.9 14.0981 1.03779 13.76 1.28388 13.5084L3.6664 11.1508C3.91601 10.9055 4.25197 10.768 4.60195 10.768C4.95191 10.768 5.28789 10.9055 5.53749 11.1508C5.7892 11.3969 6.12725 11.5346 6.47927 11.5346C6.8313 11.5346 7.16934 11.3969 7.42105 11.1508L11.1632 7.40857C11.2881 7.28555 11.3872 7.13894 11.4549 6.97726C11.5225 6.81559 11.5574 6.64206 11.5574 6.4668C11.5574 6.29152 11.5225 6.11801 11.4549 5.95633C11.3872 5.79465 11.2881 5.64804 11.1632 5.52501C10.9179 5.27541 10.7805 4.93944 10.7805 4.58948C10.7805 4.2395 10.9179 3.90354 11.1632 3.65393L13.5332 1.28388C13.785 1.03779 14.123 0.9 14.475 0.9C14.8271 0.9 15.1651 1.03779 15.4169 1.28388L15.9657 1.84521C16.6164 2.48729 17.0261 3.33385 17.1261 4.24253C17.2261 5.15121 17.0101 6.0666 16.5145 6.83477C13.9324 10.6402 10.6469 13.9172 6.83477 16.4896Z" stroke="var(--stroke-0, #4E5969)" stroke-width="1.8" stroke-linecap="round" stroke-linejoin="round"/>
</g>
</svg>
