<svg preserveAspectRatio="none" width="100%" height="100%" overflow="visible" style="display: block;" viewBox="0 0 20 20" fill="none" xmlns="http://www.w3.org/2000/svg">
<g id="Frame" clip-path="url(#clip0_6041_1373)">
<path id="Vector" d="M18.3337 9.99935C18.3337 5.39697 14.6027 1.66602 10.0003 1.66602C5.39795 1.66602 1.66699 5.39697 1.66699 9.99935C1.66699 14.6017 5.39795 18.3327 10.0003 18.3327C12.0789 18.3327 13.9798 17.5716 15.4395 16.3131" stroke="var(--stroke-0, #4E5969)" stroke-width="1.8" stroke-linecap="round" stroke-linejoin="round"/>
<path id="Vector_2" d="M10.0003 13.3327C11.8413 13.3327 13.3337 11.8403 13.3337 9.99935C13.3337 8.15839 11.8413 6.66602 10.0003 6.66602C8.15937 6.66602 6.66699 8.15839 6.66699 9.99935C6.66699 11.8403 8.15937 13.3327 10.0003 13.3327Z" stroke="var(--stroke-0, #4E5969)" stroke-width="1.8" stroke-linejoin="round"/>
<path id="Vector_3" d="M13.333 10C13.333 11.3807 14.4523 12.5 15.833 12.5C17.2137 12.5 18.333 11.3807 18.333 10" stroke="var(--stroke-0, #4E5969)" stroke-width="1.8" stroke-linecap="round" stroke-linejoin="round"/>
<path id="Vector_4" d="M13.333 10.416V6.66602" stroke="var(--stroke-0, #4E5969)" stroke-width="1.66667" stroke-linecap="round" stroke-linejoin="round"/>
</g>
<defs>
<clipPath id="clip0_6041_1373">
<rect width="20" height="20" fill="white"/>
</clipPath>
</defs>
</svg>
