<svg preserveAspectRatio="none" width="100%" height="100%" overflow="visible" style="display: block;" viewBox="0 0 14.3 18.05" fill="none" xmlns="http://www.w3.org/2000/svg">
<g id="voice-mail--mic-audio-mike-music-microphone">
<path id="Vector" d="M10.275 8.4C10.275 9.2288 9.94576 10.0237 9.35971 10.6097C8.77366 11.1958 7.9788 11.525 7.15 11.525C6.3212 11.525 5.52634 11.1958 4.94029 10.6097C4.35424 10.0237 4.025 9.2288 4.025 8.4V4.025C4.025 3.1962 4.35424 2.40134 4.94029 1.81529C5.52634 1.22924 6.3212 0.9 7.15 0.9C7.9788 0.9 8.77366 1.22924 9.35971 1.81529C9.94576 2.40134 10.275 3.1962 10.275 4.025V8.4Z" stroke="var(--stroke-0, #4E5969)" stroke-width="1.8" stroke-linecap="round" stroke-linejoin="round"/>
<path id="Vector_2" d="M13.4 9.025C13.4016 9.76415 13.2573 10.4963 12.9753 11.1795C12.6931 11.8627 12.2789 12.4835 11.7561 13.0061C11.2335 13.5288 10.6128 13.9431 9.92955 14.2251C9.24635 14.5072 8.51416 14.6516 7.77501 14.65H6.52501C5.78586 14.6516 5.05368 14.5072 4.37048 14.2251C3.68728 13.9431 3.06653 13.5288 2.54386 13.0061C2.0212 12.4835 1.60694 11.8627 1.32484 11.1795C1.04274 10.4963 0.898364 9.76415 0.900014 9.025" stroke="var(--stroke-0, #4E5969)" stroke-width="1.8" stroke-linecap="round" stroke-linejoin="round"/>
<path id="Vector_3" d="M7.15 14.65V17.15" stroke="var(--stroke-0, #4E5969)" stroke-width="1.8" stroke-linecap="round" stroke-linejoin="round"/>
</g>
</svg>
