<svg preserveAspectRatio="none" width="100%" height="100%" overflow="visible" style="display: block;" viewBox="0 0 13 14.3333" fill="none" xmlns="http://www.w3.org/2000/svg">
<g id="Group">
<path id="Vector" d="M2.33333 4.5C2.33333 4.22386 2.10947 4 1.83333 4C1.55719 4 1.33333 4.22386 1.33333 4.5H2.33333ZM11.6667 4.5C11.6667 4.22386 11.4428 4 11.1667 4C10.8905 4 10.6667 4.22386 10.6667 4.5H11.6667ZM8.33333 6.5C8.33333 6.22386 8.10947 6 7.83333 6C7.5572 6 7.33333 6.22386 7.33333 6.5H8.33333ZM7.33333 10.5C7.33333 10.7761 7.5572 11 7.83333 11C8.10947 11 8.33333 10.7761 8.33333 10.5H7.33333ZM5.66667 6.5C5.66667 6.22386 5.44281 6 5.16667 6C4.89053 6 4.66667 6.22386 4.66667 6.5H5.66667ZM4.66667 10.5C4.66667 10.7761 4.89053 11 5.16667 11C5.44281 11 5.66667 10.7761 5.66667 10.5H4.66667ZM12.5 3C12.7761 3 13 2.77614 13 2.5C13 2.22386 12.7761 2 12.5 2V3ZM0.5 2C0.223857 2 0 2.22386 0 2.5C0 2.77614 0.223857 3 0.5 3V2ZM4.5 14.3333H8.5V13.3333H4.5V14.3333ZM1.33333 4.5V11.1667H2.33333V4.5H1.33333ZM11.6667 11.1667V4.5H10.6667V11.1667H11.6667ZM8.5 14.3333C10.2489 14.3333 11.6667 12.9156 11.6667 11.1667H10.6667C10.6667 12.3633 9.6966 13.3333 8.5 13.3333V14.3333ZM4.5 13.3333C3.30338 13.3333 2.33333 12.3633 2.33333 11.1667H1.33333C1.33333 12.9156 2.7511 14.3333 4.5 14.3333V13.3333ZM7.33333 6.5V10.5H8.33333V6.5H7.33333ZM4.66667 6.5V10.5H5.66667V6.5H4.66667ZM5.88025 1H7.11975V0H5.88025V1ZM7.81313 1.37108L8.75067 2.77735L9.58267 2.22265L8.6452 0.816383L7.81313 1.37108ZM9.16667 2H3.83333V3H9.16667V2ZM4.24936 2.77735L5.18687 1.37108L4.35482 0.816383L3.41731 2.22265L4.24936 2.77735ZM9.16667 3H12.5V2H9.16667V3ZM3.83333 2H0.5V3H3.83333V2ZM7.11975 1C7.3984 1 7.6586 1.13925 7.81313 1.37108L8.6452 0.816383C8.30513 0.306352 7.73273 0 7.11975 0V1ZM5.88025 0C5.26727 0 4.69484 0.306352 4.35482 0.816383L5.18687 1.37108C5.34143 1.13925 5.60162 1 5.88025 1V0Z" fill="var(--fill-0, #FF2626)"/>
</g>
</svg>
