<svg preserveAspectRatio="none" width="100%" height="100%" overflow="visible" style="display: block;" viewBox="0 0 13 13" fill="none" xmlns="http://www.w3.org/2000/svg">
<g id="Group">
<path id="Vector" d="M0.5 12C0.223857 12 0 12.2239 0 12.5C0 12.7761 0.223857 13 0.5 13V12ZM12.5 13C12.7761 13 13 12.7761 13 12.5C13 12.2239 12.7761 12 12.5 12V13ZM8.1896 2.04114C8.1896 1.765 7.96573 1.54114 7.6896 1.54114C7.41347 1.54114 7.1896 1.765 7.1896 2.04114H8.1896ZM10.9589 5.81039C11.235 5.81039 11.4589 5.58653 11.4589 5.31039C11.4589 5.03425 11.235 4.81039 10.9589 4.81039V5.81039ZM0.5 13H12.5V12H0.5V13ZM10.6053 1.30494L11.6951 2.39469L12.4021 1.68759L11.3124 0.597837L10.6053 1.30494ZM11.6951 3.86709L6.18647 9.37567L6.89358 10.0828L12.4021 4.57419L11.6951 3.86709ZM3.62433 6.81353L9.13293 1.30494L8.4258 0.597837L2.91722 6.10642L3.62433 6.81353ZM5.59751 9.67013L3.30904 9.99707L3.45046 10.987L5.73893 10.6601L5.59751 9.67013ZM3.00293 9.69093L3.32985 7.40247L2.3399 7.26107L2.01297 9.54954L3.00293 9.69093ZM3.30904 9.99707C3.13047 10.0226 2.97741 9.86953 3.00293 9.69093L2.01297 9.54954C1.89319 10.3881 2.61193 11.1068 3.45046 10.987L3.30904 9.99707ZM2.91722 6.10642C2.60493 6.41871 2.40236 6.82386 2.3399 7.26107L3.32985 7.40247C3.36171 7.17947 3.46504 6.97282 3.62433 6.81353L2.91722 6.10642ZM6.18647 9.37567C6.02718 9.53494 5.82052 9.63827 5.59751 9.67013L5.73893 10.6601C6.17613 10.5977 6.58129 10.3951 6.89358 10.0828L6.18647 9.37567ZM11.6951 2.39469C12.1017 2.80128 12.1017 3.46049 11.6951 3.86709L12.4021 4.57419C13.1993 3.77708 13.1993 2.4847 12.4021 1.68759L11.6951 2.39469ZM11.3124 0.597837C10.5153 -0.199279 9.22293 -0.199279 8.4258 0.597837L9.13293 1.30494C9.53953 0.898354 10.1987 0.898354 10.6053 1.30494L11.3124 0.597837ZM7.6896 2.04114C7.1896 2.04114 7.1896 2.04089 7.1896 2.04114C7.1896 2.04123 7.1896 2.04199 7.1896 2.04217C7.1896 2.04253 7.1896 2.04291 7.1896 2.0433C7.1896 2.04409 7.1896 2.04495 7.1896 2.04587C7.18967 2.04772 7.18967 2.04985 7.18973 2.05224C7.1898 2.05702 7.18993 2.06287 7.19013 2.06977C7.1906 2.08355 7.1914 2.10151 7.19287 2.12335C7.19573 2.16703 7.20127 2.22638 7.21167 2.29915C7.23247 2.44461 7.27287 2.64446 7.35147 2.88035C7.50933 3.35386 7.81987 3.96824 8.4258 4.57419L9.13293 3.86709C8.64913 3.38329 8.4148 2.90793 8.3002 2.56412C8.2426 2.39135 8.21487 2.25065 8.2016 2.15773C8.195 2.11131 8.192 2.07701 8.1906 2.05683C8.18993 2.04675 8.18973 2.04023 8.1896 2.03753C8.1896 2.03617 8.1896 2.03577 8.1896 2.03637C8.1896 2.03666 8.1896 2.03673 8.1896 2.03753C8.1896 2.03792 8.1896 2.03885 8.1896 2.03938C8.1896 2.03964 8.1896 2.03992 8.1896 2.04021C8.1896 2.04036 8.1896 2.04107 8.1896 2.04114C8.1896 2.04137 8.1896 2.04114 7.6896 2.04114ZM8.4258 4.57419C9.03173 5.18015 9.64613 5.49068 10.1197 5.64851C10.3555 5.72715 10.5554 5.76756 10.7009 5.78834C10.7736 5.79873 10.833 5.80425 10.8767 5.80715C10.8985 5.80861 10.9165 5.80942 10.9302 5.80987C10.9371 5.81009 10.943 5.81022 10.9477 5.81029C10.9501 5.81033 10.9523 5.81036 10.9541 5.81038C10.9551 5.81038 10.9559 5.81039 10.9567 5.81039C10.9571 5.81039 10.9575 5.81039 10.9578 5.81039C10.9577 5.81039 10.958 5.81039 10.9578 5.81039C10.9581 5.81039 10.9589 5.81039 10.9589 5.31039C10.9589 4.81039 10.9586 4.81039 10.9589 4.81039C10.9589 4.81039 10.9597 4.81039 10.9598 4.81039C10.9601 4.81039 10.9603 4.81039 10.9606 4.81039C10.9611 4.8104 10.9616 4.8104 10.962 4.81041C10.9628 4.81041 10.9633 4.81042 10.9637 4.81042C10.9642 4.81043 10.9633 4.81045 10.962 4.81041C10.9593 4.81032 10.9533 4.81005 10.9431 4.80937C10.923 4.80803 10.8887 4.80502 10.8423 4.79839C10.7493 4.78511 10.6087 4.75742 10.4359 4.69983C10.0921 4.58523 9.61673 4.35088 9.13293 3.86709L8.4258 4.57419Z" fill="var(--fill-0, #1D2129)"/>
</g>
</svg>
