<svg preserveAspectRatio="none" width="100%" height="100%" overflow="visible" style="display: block;" viewBox="0 0 7.84671 7.74173" fill="none" xmlns="http://www.w3.org/2000/svg">
<path id="Vector 2136 (Stroke)" d="M2.88753 0.747985C3.2071 -0.277577 4.7235 -0.250609 4.97249 0.841735L4.99788 0.954039C5.21683 1.91386 5.9909 2.64844 6.96077 2.81732C8.14235 3.02288 8.1417 4.71916 6.96077 4.92474C5.99094 5.09355 5.21684 5.82814 4.99788 6.78802L4.97249 6.90033C4.71537 8.02771 3.10738 8.01991 2.86019 6.89056L2.8387 6.79486C2.62791 5.83191 1.85569 5.0917 0.884602 4.92279C-0.29446 4.7175 -0.295275 3.02453 0.884602 2.81927L1.06429 2.78119C1.95013 2.55717 2.64109 1.84996 2.8387 0.947203L2.86019 0.850524L2.88753 0.747985ZM3.91976 2.29681C3.55918 2.9628 3.01368 3.50867 2.3514 3.87103C3.01345 4.23327 3.5592 4.77859 3.91976 5.44427C4.28288 4.77839 4.83036 4.23286 5.49398 3.87103C4.83012 3.50908 4.28289 2.963 3.91976 2.29681Z" fill="var(--fill-0, #1D2129)"/>
</svg>
