<svg preserveAspectRatio="none" width="100%" height="100%" overflow="visible" style="display: block;" viewBox="0 0 12.7504 12.829" fill="none" xmlns="http://www.w3.org/2000/svg">
<g id="Group 1437256639">
<path id="Vector" d="M11.1879 0.00761299C11.2338 0.0227867 11.2698 0.0595231 11.2842 0.105843L11.602 1.12328L12.6482 1.47787C12.6785 1.4882 12.7047 1.50789 12.7231 1.53409C12.7414 1.5603 12.751 1.59166 12.7504 1.62366C12.7498 1.65565 12.739 1.68662 12.7196 1.7121C12.7002 1.73757 12.6733 1.75622 12.6426 1.76537L11.6004 2.07523L11.261 3.09706C11.2509 3.12728 11.2314 3.15352 11.2054 3.17201C11.1795 3.1905 11.1483 3.20029 11.1164 3.19998C11.0846 3.19967 11.0536 3.18927 11.028 3.17028C11.0024 3.15129 10.9834 3.12468 10.9739 3.09427L10.656 2.07723L9.6426 1.77136C9.61217 1.76215 9.58543 1.74357 9.56619 1.71827C9.54694 1.69297 9.53618 1.66224 9.53542 1.63046C9.53467 1.59868 9.54397 1.56748 9.562 1.5413C9.58002 1.51511 9.60586 1.49529 9.63581 1.48465L10.658 1.12528L10.9975 0.103048C11.0101 0.0651818 11.0373 0.0338785 11.073 0.0159918C11.1087 -0.00189499 11.15 -0.0049078 11.1879 0.00761299Z" fill="var(--fill-0, #4E5969)"/>
<path id="Vector 4259" d="M0.750198 11.9992L3.68193 4.83276C4.02086 4.00427 5.19409 4.00427 5.53302 4.83276L8.46475 11.9992" stroke="var(--stroke-0, #4E5969)" stroke-width="1.5" stroke-linecap="round"/>
<path id="Vector 4260" d="M2.46504 8.57031H6.85774" stroke="var(--stroke-0, #4E5969)" stroke-width="1.5" stroke-linecap="round"/>
<path id="Vector 4261" d="M11.0002 4.75781V12.079" stroke="var(--stroke-0, #4E5969)" stroke-width="1.5" stroke-linecap="round"/>
</g>
</svg>
