<svg preserveAspectRatio="none" width="100%" height="100%" overflow="visible" style="display: block;" viewBox="0 0 24 24" fill="none" xmlns="http://www.w3.org/2000/svg">
<g id="global-search">
<g id="Group">
<path id="Vector" d="M22 12C22 6.48 17.52 2 12 2C6.48 2 2 6.48 2 12C2 17.52 6.48 22 12 22" stroke="var(--stroke-0, #4E5969)" stroke-width="1.5" stroke-linecap="round" stroke-linejoin="round"/>
<path id="Vector_2" d="M8.00001 3H9.00001C7.05001 8.84 7.05001 15.16 9.00001 21H8.00001" stroke="var(--stroke-0, #4E5969)" stroke-width="1.5" stroke-linecap="round" stroke-linejoin="round"/>
<path id="Vector_3" d="M15 3C15.97 5.92 16.46 8.96 16.46 12" stroke="var(--stroke-0, #4E5969)" stroke-width="1.5" stroke-linecap="round" stroke-linejoin="round"/>
<path id="Vector_4" d="M3 16V15C5.92 15.97 8.96 16.46 12 16.46" stroke="var(--stroke-0, #4E5969)" stroke-width="1.5" stroke-linecap="round" stroke-linejoin="round"/>
<path id="Vector_5" d="M3 8.99998C8.84 7.04998 15.16 7.04998 21 8.99998" stroke="var(--stroke-0, #4E5969)" stroke-width="1.5" stroke-linecap="round" stroke-linejoin="round"/>
</g>
<g id="Group_2">
<path id="Vector_6" d="M18.2 21.4C19.9673 21.4 21.4 19.9673 21.4 18.2C21.4 16.4327 19.9673 15 18.2 15C16.4327 15 15 16.4327 15 18.2C15 19.9673 16.4327 21.4 18.2 21.4Z" stroke="var(--stroke-0, #4E5969)" stroke-width="1.5" stroke-linecap="round" stroke-linejoin="round"/>
<path id="Vector_7" d="M22 22L21 21" stroke="var(--stroke-0, #4E5969)" stroke-width="1.5" stroke-linecap="round" stroke-linejoin="round"/>
</g>
<g id="Vector_8" opacity="0">
</g>
</g>
</svg>
