<svg width="24" height="24" viewBox="0 0 24 24" fill="none" xmlns="http://www.w3.org/2000/svg">
<g transform="translate(2.25 1.25)"><g id="Group">
<path id="Vector" d="M11.4463 1.96658L16.2894 4.83465L17.0537 3.54399L12.2106 0.675918L11.4463 1.96658ZM1.5 13.6181V7.88192H0V13.6181H1.5ZM3.21063 4.83465L8.0537 1.96658L7.28937 0.675918L2.4463 3.54399L3.21063 4.83465ZM1.5 7.88192C1.5 6.61735 2.15779 5.45814 3.21063 4.83465L2.4463 3.54399C0.926819 4.44383 0 6.09985 0 7.88192H1.5ZM3.21063 16.6653C2.15779 16.0419 1.5 14.8827 1.5 13.6181H0C0 15.4002 0.926819 17.0562 2.4463 17.956L3.21063 16.6653ZM11.4463 19.5334C10.3958 20.1555 9.10419 20.1555 8.0537 19.5334L7.28937 20.8241C8.81119 21.7253 10.6888 21.7253 12.2106 20.8241L11.4463 19.5334ZM16.2894 4.83465C17.131 5.33308 17.7202 6.17388 17.9227 7.13718C18.0079 7.54254 18.3358 7.88192 18.75 7.88192C19.1642 7.88192 19.5057 7.54428 19.4452 7.1345C19.2257 5.64616 18.3581 4.31645 17.0537 3.54399L16.2894 4.83465ZM12.2106 0.675918C10.6888 -0.225306 8.81119 -0.225306 7.28937 0.675918L8.0537 1.96658C9.1042 1.34447 10.3958 1.34447 11.4463 1.96658L12.2106 0.675918ZM16.0511 17.6782C15.84 17.3217 15.38 17.2039 15.0235 17.415L11.4463 19.5334L12.2106 20.8241L15.7879 18.7057C16.1443 18.4946 16.2621 18.0346 16.0511 17.6782ZM8.0537 19.5334L3.83112 17.0328L3.06679 18.3235L7.28937 20.8241L8.0537 19.5334ZM3.83112 17.0328L3.21063 16.6653L2.4463 17.956L3.06679 18.3235L3.83112 17.0328ZM4.10219 18.0466C5.11657 16.2484 6.91237 14.9871 9.00151 14.7416C9.41289 14.6933 9.74999 14.3621 9.74999 13.9479C9.74999 13.5337 9.41324 13.1941 9.00088 13.2332C6.3389 13.4853 4.06068 15.0672 2.79572 17.3097L4.10219 18.0466Z" fill="var(--fill-0, #1D2129)"/>
<g id="Group_2">
<path id="Vector (Stroke)" d="M11.625 7.75C11.625 8.78553 10.7855 9.625 9.75 9.625C8.71447 9.625 7.875 8.78553 7.875 7.75C7.875 6.71447 8.71447 5.875 9.75 5.875C10.7855 5.875 11.625 6.71447 11.625 7.75ZM13.125 7.75C13.125 5.88604 11.614 4.375 9.75 4.375C7.88604 4.375 6.375 5.88604 6.375 7.75C6.375 9.61396 7.88604 11.125 9.75 11.125C11.614 11.125 13.125 9.61396 13.125 7.75Z" fill="var(--fill-0, #1D2129)"/>
</g>
</g></g>
<g transform="translate(15.75 11.25)"><path id="Vector 2136 (Stroke)" d="M2.88753 0.747985C3.2071 -0.277577 4.7235 -0.250609 4.97249 0.841735L4.99788 0.954039C5.21683 1.91386 5.9909 2.64844 6.96077 2.81732C8.14235 3.02288 8.1417 4.71916 6.96077 4.92474C5.99094 5.09355 5.21684 5.82814 4.99788 6.78802L4.97249 6.90033C4.71537 8.02771 3.10738 8.01991 2.86019 6.89056L2.8387 6.79486C2.62791 5.83191 1.85569 5.0917 0.884602 4.92279C-0.29446 4.7175 -0.295275 3.02453 0.884602 2.81927L1.06429 2.78119C1.95013 2.55717 2.64109 1.84996 2.8387 0.947203L2.86019 0.850524L2.88753 0.747985ZM3.91976 2.29681C3.55918 2.9628 3.01368 3.50867 2.3514 3.87103C3.01345 4.23327 3.5592 4.77859 3.91976 5.44427C4.28288 4.77839 4.83036 4.23286 5.49398 3.87103C4.83012 3.50908 4.28289 2.963 3.91976 2.29681Z" fill="var(--fill-0, #1D2129)"/></g>
</svg>