<svg preserveAspectRatio="none" width="100%" height="100%" overflow="visible" style="display: block;" viewBox="0 0 19.5014 19.5014" fill="none" xmlns="http://www.w3.org/2000/svg">
<g id="pathfinder-divide">
<path id="Vector" d="M11.8276 13.2123C12.5924 13.2123 13.2123 12.5924 13.2123 11.8276V2.1347C13.2123 1.3805 12.5818 0.75 11.8276 0.75H2.1347C1.3805 0.75 0.75 1.3805 0.75 2.1347V11.8276C0.75 12.5818 1.3805 13.2123 2.1347 13.2123H11.8276Z" stroke="var(--stroke-0, #4E5969)" stroke-width="1.5" stroke-linecap="round" stroke-linejoin="round"/>
<path id="Vector_2" d="M17.3667 18.7514C18.1314 18.7514 18.7514 18.1314 18.7514 17.3667V7.67376C18.7514 6.91956 18.1209 6.28906 17.3667 6.28906H7.67376C6.91956 6.28906 6.28906 6.91956 6.28906 7.67376V17.3667C6.28906 18.1209 6.91956 18.7514 7.67376 18.7514H17.3667Z" stroke="var(--stroke-0, #4E5969)" stroke-width="1.5" stroke-linecap="round" stroke-linejoin="round"/>
</g>
</svg>
