<svg preserveAspectRatio="none" width="100%" height="100%" overflow="visible" style="display: block;" viewBox="0 0 18 18" fill="none" xmlns="http://www.w3.org/2000/svg">
<g id="Frame" clip-path="url(#clip0_6041_1423)">
<path id="Vector (Stroke)" d="M15.75 9C15.75 5.27208 12.7279 2.25 9 2.25C5.27208 2.25 2.25 5.27208 2.25 9C2.25 12.7279 5.27208 15.75 9 15.75C12.7279 15.75 15.75 12.7279 15.75 9ZM17.25 9C17.25 13.5564 13.5564 17.25 9 17.25C4.44365 17.25 0.75 13.5564 0.75 9C0.75 4.44365 4.44365 0.75 9 0.75C13.5564 0.75 17.25 4.44365 17.25 9Z" fill="var(--fill-0, #4E5969)"/>
<path id="Vector (Stroke)_2" d="M6.375 11.25V6.75C6.375 6.33579 6.71079 6 7.125 6C7.53921 6 7.875 6.33579 7.875 6.75V11.25C7.875 11.6642 7.53921 12 7.125 12C6.71079 12 6.375 11.6642 6.375 11.25Z" fill="var(--fill-0, #4E5969)"/>
<path id="Vector (Stroke)_3" d="M10.125 11.25V6.75C10.125 6.33579 10.4608 6 10.875 6C11.2892 6 11.625 6.33579 11.625 6.75V11.25C11.625 11.6642 11.2892 12 10.875 12C10.4608 12 10.125 11.6642 10.125 11.25Z" fill="var(--fill-0, #4E5969)"/>
</g>
<defs>
<clipPath id="clip0_6041_1423">
<rect width="18" height="18" fill="white"/>
</clipPath>
</defs>
</svg>
