<svg preserveAspectRatio="none" width="100%" height="100%" overflow="visible" style="display: block;" viewBox="0 0 14.3333 14.3333" fill="none" xmlns="http://www.w3.org/2000/svg">
<g id="Group">
<path id="Vector" d="M7.16667 13.3333C6.89053 13.3333 6.66667 13.5572 6.66667 13.8333C6.66667 14.1095 6.89053 14.3333 7.16667 14.3333V13.3333ZM0 7.16667C0 7.44281 0.223857 7.66667 0.5 7.66667C0.776143 7.66667 1 7.44281 1 7.16667H0ZM7.16667 1C10.5724 1 13.3333 3.76093 13.3333 7.16667H14.3333C14.3333 3.2086 11.1247 5.36442e-07 7.16667 5.36442e-07V1ZM13.3333 7.16667C13.3333 10.5724 10.5724 13.3333 7.16667 13.3333V14.3333C11.1247 14.3333 14.3333 11.1247 14.3333 7.16667H13.3333ZM1 7.16667C1 3.76093 3.76091 1 7.16667 1V5.36442e-07C3.20863 5.36442e-07 0 3.2086 0 7.16667H1Z" fill="var(--fill-0, #86909C)"/>
<path id="Vector_2" d="M7.16667 14.3333C7.4428 14.3333 7.66667 14.1095 7.66667 13.8333C7.66667 13.5572 7.4428 13.3333 7.16667 13.3333V14.3333ZM1 7.16667C1 6.89053 0.776143 6.66667 0.5 6.66667C0.223857 6.66667 0 6.89053 0 7.16667H1ZM6.99299 13.3309C6.71695 13.3233 6.487 13.5409 6.47938 13.8169C6.47175 14.093 6.68935 14.3229 6.96539 14.3306L6.99299 13.3309ZM4.61003 13.8637C4.86799 13.9623 5.15699 13.833 5.25553 13.575C5.35406 13.3171 5.22481 13.0281 4.96685 12.9295L4.61003 13.8637ZM4.64745 12.7971C4.39546 12.6842 4.09963 12.7969 3.98669 13.0489C3.87375 13.3009 3.98648 13.5967 4.23847 13.7096L4.64745 12.7971ZM2.24313 12.3744C2.44375 12.5641 2.76021 12.5553 2.94996 12.3547C3.1397 12.154 3.13088 11.8376 2.93025 11.6478L2.24313 12.3744ZM2.68551 11.4031C2.49577 11.2025 2.17931 11.1936 1.97868 11.3834C1.77805 11.5731 1.76923 11.8896 1.95897 12.0902L2.68551 11.4031ZM0.623693 10.0949C0.736628 10.3468 1.03246 10.4596 1.28445 10.3466C1.53645 10.2337 1.64917 9.93787 1.53624 9.68588L0.623693 10.0949ZM1.40379 9.36648C1.30525 9.10852 1.01625 8.97927 0.758289 9.07781C0.500325 9.17634 0.37108 9.46534 0.469613 9.72331L1.40379 9.36648ZM0.00277583 7.36795C0.0103978 7.64399 0.24035 7.86158 0.516387 7.85395C0.792424 7.84633 1.01002 7.61638 1.00239 7.34035L0.00277583 7.36795ZM7.16667 13.3333C7.10857 13.3333 7.05067 13.3325 6.99299 13.3309L6.96539 14.3306C7.03227 14.3324 7.09937 14.3333 7.16667 14.3333V13.3333ZM4.96685 12.9295C4.8589 12.8883 4.7524 12.8441 4.64745 12.7971L4.23847 13.7096C4.36055 13.7643 4.48444 13.8157 4.61003 13.8637L4.96685 12.9295ZM2.93025 11.6478C2.84641 11.5685 2.7648 11.4869 2.68551 11.4031L1.95897 12.0902C2.05103 12.1875 2.14579 12.2823 2.24313 12.3744L2.93025 11.6478ZM1.53624 9.68588C1.4892 9.58093 1.44502 9.47443 1.40379 9.36648L0.469613 9.72331C0.517585 9.84889 0.568983 9.97279 0.623693 10.0949L1.53624 9.68588ZM1.00239 7.34035C1.0008 7.28266 1 7.22477 1 7.16667H0C0 7.23397 0.000929161 7.30107 0.00277583 7.36795L1.00239 7.34035Z" fill="var(--fill-0, #86909C)"/>
<path id="Vector_3" d="M7.66667 7.16667C7.66667 7.44281 7.44281 7.66667 7.16667 7.66667V8.66667C7.99509 8.66667 8.66667 7.99509 8.66667 7.16667H7.66667ZM7.16667 7.66667C6.89053 7.66667 6.66667 7.44281 6.66667 7.16667H5.66667C5.66667 7.99509 6.33824 8.66667 7.16667 8.66667V7.66667ZM6.66667 7.16667C6.66667 6.89053 6.89053 6.66667 7.16667 6.66667V5.66667C6.33824 5.66667 5.66667 6.33824 5.66667 7.16667H6.66667ZM7.16667 6.66667C7.44281 6.66667 7.66667 6.89053 7.66667 7.16667H8.66667C8.66667 6.33824 7.99509 5.66667 7.16667 5.66667V6.66667Z" fill="var(--fill-0, #86909C)"/>
<path id="Vector_4" d="M6.66667 8.16667C6.66667 7.89053 6.89053 7.66667 7.16667 7.66667C7.44281 7.66667 7.66667 7.89053 7.66667 8.16667H6.66667ZM7.66667 9.83333C7.66667 10.1095 7.44281 10.3333 7.16667 10.3333C6.89053 10.3333 6.66667 10.1095 6.66667 9.83333H7.66667ZM3.16667 7.66667C2.89052 7.66667 2.66667 7.44281 2.66667 7.16667C2.66667 6.89053 2.89052 6.66667 3.16667 6.66667V7.66667ZM6.16667 6.66667C6.44281 6.66667 6.66667 6.89053 6.66667 7.16667C6.66667 7.44281 6.44281 7.66667 6.16667 7.66667V6.66667ZM7.66667 8.16667V9.83333H6.66667V8.16667H7.66667ZM6.16667 7.66667H3.16667V6.66667H6.16667V7.66667Z" fill="var(--fill-0, #86909C)"/>
</g>
</svg>
