<svg preserveAspectRatio="none" width="100%" height="100%" overflow="visible" style="display: block;" viewBox="0 0 14.3333 13" fill="none" xmlns="http://www.w3.org/2000/svg">
<g id="Group">
<path id="Vector" d="M6.5 1H7.83333V0H6.5V1ZM1 9.83333V6.5H0V9.83333H1ZM7.83333 12H3.16667V13H7.83333V12ZM0 9.83333C0 11.5823 1.41777 13 3.16667 13V12C1.97005 12 1 11.0299 1 9.83333H0ZM13.3333 6.5C13.3333 9.53753 10.8709 12 7.83333 12V13C11.4232 13 14.3333 10.0899 14.3333 6.5H13.3333ZM7.83333 1C10.8709 1 13.3333 3.46243 13.3333 6.5H14.3333C14.3333 2.91015 11.4232 0 7.83333 0V1ZM6.5 0C2.91015 0 0 2.91015 0 6.5H1C1 3.46243 3.46243 1 6.5 1V0Z" fill="var(--fill-0, #86909C)"/>
<path id="Vector_2" d="M7.16661 7.16732C7.5348 7.16732 7.83327 6.86884 7.83327 6.50065C7.83327 6.13246 7.5348 5.83398 7.16661 5.83398C6.79842 5.83398 6.49994 6.13246 6.49994 6.50065C6.49994 6.86884 6.79842 7.16732 7.16661 7.16732Z" fill="var(--fill-0, #86909C)"/>
<path id="Vector_3" d="M9.83329 7.16732C10.2015 7.16732 10.5 6.86884 10.5 6.50065C10.5 6.13246 10.2015 5.83398 9.83329 5.83398C9.4651 5.83398 9.16663 6.13246 9.16663 6.50065C9.16663 6.86884 9.4651 7.16732 9.83329 7.16732Z" fill="var(--fill-0, #86909C)"/>
<path id="Vector_4" d="M4.49998 7.16732C4.86817 7.16732 5.16665 6.86884 5.16665 6.50065C5.16665 6.13246 4.86817 5.83398 4.49998 5.83398C4.13179 5.83398 3.83331 6.13246 3.83331 6.50065C3.83331 6.86884 4.13179 7.16732 4.49998 7.16732Z" fill="var(--fill-0, #86909C)"/>
</g>
</svg>
