<svg preserveAspectRatio="none" width="100%" height="100%" overflow="visible" style="display: block;" viewBox="0 0 14.3333 14.3333" fill="none" xmlns="http://www.w3.org/2000/svg">
<g id="Group">
<path id="Vector" d="M4.83448 6.79502C4.62923 6.61029 4.31308 6.62693 4.12835 6.83219C3.94363 7.03744 3.96026 7.3536 4.16552 7.53833L4.83448 6.79502ZM10.228 5.47364C10.3975 5.25566 10.3583 4.94153 10.1403 4.77199C9.92233 4.60245 9.6082 4.64172 9.43867 4.85969L10.228 5.47364ZM7.16667 14.3333C11.1247 14.3333 14.3333 11.1247 14.3333 7.16667H13.3333C13.3333 10.5724 10.5724 13.3333 7.16667 13.3333V14.3333ZM0 7.16667C0 11.1247 3.20863 14.3333 7.16667 14.3333V13.3333C3.76091 13.3333 1 10.5724 1 7.16667H0ZM7.16667 0C3.20863 0 0 3.20863 0 7.16667H1C1 3.76091 3.76091 1 7.16667 1V0ZM7.16667 1C10.5724 1 13.3333 3.76091 13.3333 7.16667H14.3333C14.3333 3.20863 11.1247 0 7.16667 0V1ZM4.16552 7.53833L5.85531 9.05913L6.52427 8.3158L4.83448 6.79502L4.16552 7.53833ZM7.55667 8.9082L10.228 5.47364L9.43867 4.85969L6.76732 8.29427L7.55667 8.9082ZM5.85531 9.05913C6.35873 9.5122 7.14087 9.4428 7.55667 8.9082L6.76732 8.29427C6.70792 8.37067 6.59619 8.38053 6.52427 8.3158L5.85531 9.05913Z" fill="var(--fill-0, #00C261)"/>
</g>
</svg>
