<svg preserveAspectRatio="none" width="100%" height="100%" overflow="visible" style="display: block;" viewBox="0 0 14.3333 14.3333" fill="none" xmlns="http://www.w3.org/2000/svg">
<g id="Group">
<path id="Vector" d="M7.16667 7.16667H6.66667C6.66667 7.38187 6.80438 7.57293 7.00855 7.641L7.16667 7.16667ZM7.66667 3.83333C7.66667 3.55719 7.4428 3.33333 7.16667 3.33333C6.89053 3.33333 6.66667 3.55719 6.66667 3.83333H7.66667ZM9.00853 8.30767C9.27053 8.395 9.55367 8.2534 9.641 7.99147C9.72833 7.72947 9.58673 7.44633 9.3248 7.359L9.00853 8.30767ZM7.66667 7.16667V3.83333H6.66667V7.16667H7.66667ZM7.00855 7.641L9.00853 8.30767L9.3248 7.359L7.3248 6.69233L7.00855 7.641ZM13.3333 7.16667C13.3333 10.5724 10.5724 13.3333 7.16667 13.3333V14.3333C11.1247 14.3333 14.3333 11.1247 14.3333 7.16667H13.3333ZM7.16667 13.3333C3.76091 13.3333 1 10.5724 1 7.16667H0C0 11.1247 3.20863 14.3333 7.16667 14.3333V13.3333ZM1 7.16667C1 3.76091 3.76091 1 7.16667 1V0C3.20863 0 0 3.20863 0 7.16667H1ZM7.16667 1C10.5724 1 13.3333 3.76091 13.3333 7.16667H14.3333C14.3333 3.20863 11.1247 0 7.16667 0V1Z" fill="var(--fill-0, #4E5969)"/>
</g>
</svg>
