<svg preserveAspectRatio="none" width="100%" height="100%" overflow="visible" style="display: block;" viewBox="0 0 20 20" fill="none" xmlns="http://www.w3.org/2000/svg">
<g id="Frame">
<path id="Vector" d="M3.68645 8.73828C2.99201 8.73828 2.42383 9.30646 2.42383 10.0009C2.42383 10.6954 2.99201 11.2635 3.68645 11.2635C4.3809 11.2635 4.94908 10.6954 4.94908 10.0009C4.94908 9.30646 4.3809 8.73828 3.68645 8.73828ZM16.3127 8.73828C15.6183 8.73828 15.0501 9.30646 15.0501 10.0009C15.0501 10.6954 15.6183 11.2635 16.3127 11.2635C17.0072 11.2635 17.5753 10.6954 17.5753 10.0009C17.5753 9.30646 17.0072 8.73828 16.3127 8.73828ZM9.99959 8.73828C9.30514 8.73828 8.73696 9.30646 8.73696 10.0009C8.73696 10.6954 9.30514 11.2635 9.99959 11.2635C10.694 11.2635 11.2622 10.6954 11.2622 10.0009C11.2622 9.30646 10.694 8.73828 9.99959 8.73828Z" fill="var(--fill-0, #1D2129)"/>
</g>
</svg>
