<svg preserveAspectRatio="none" width="100%" height="100%" overflow="visible" style="display: block;" viewBox="0 0 20 20" fill="none" xmlns="http://www.w3.org/2000/svg">
<g id="Frame 1437257435">
<g id="chat-bubble-oval--messages-message-bubble-chat-oval">
<path id="Ellipse 1144" d="M5.31987 16.3627C6.16635 16.7773 7.11808 17.01 8.12416 17.01C11.65 17.01 14.5081 14.1519 14.5081 10.6261C14.5081 7.10037 11.65 4.24219 8.12416 4.24219C4.59842 4.24219 1.74023 7.10037 1.74023 10.6261C1.74023 11.9349 2.13409 13.1517 2.80975 14.1645M5.32506 16.3618L5.31987 16.3627L1.74023 17.01L2.80975 14.1645M2.80975 14.1645L2.81077 14.1618" stroke="var(--stroke-0, #1D2129)" stroke-width="1.3" stroke-linecap="round" stroke-linejoin="round"/>
</g>
<g id="chat-bubble-oval--messages-message-bubble-chat-oval_2">
<path id="Ellipse 1144_2" d="M15.4189 14.0691C14.7263 14.4083 13.9476 14.5988 13.1244 14.5988M15.4146 14.0684L15.4189 14.0691L18.3477 14.5988L17.4726 12.2706M17.4726 12.2706C18.0254 11.442 18.3477 10.4464 18.3477 9.37556C18.3477 6.49086 16.0091 4.15234 13.1244 4.15234C12.2727 4.15234 11.4686 4.3562 10.7582 4.71779M17.4726 12.2706L17.4718 12.2684" stroke="var(--stroke-0, #1D2129)" stroke-width="1.3" stroke-linecap="round" stroke-linejoin="round"/>
</g>
<path id="Vector 4334" d="M8 8V11H11" stroke="var(--stroke-0, #1D2129)" stroke-width="1.3" stroke-linecap="round"/>
</g>
</svg>
