<svg preserveAspectRatio="none" width="100%" height="100%" overflow="visible" style="display: block;" viewBox="0 0 18.1755 14.2446" fill="none" xmlns="http://www.w3.org/2000/svg">
<g id="volume-level-high--speaker-high-volume-control-audio-music-entertainment">
<path id="Vector" d="M16.2275 11.6673C17.0583 10.2952 17.5067 8.72578 17.5262 7.12189C17.5067 5.51799 17.0583 3.94854 16.2275 2.57643" stroke="var(--stroke-0, #1D2129)" stroke-width="1.2987" stroke-linecap="round" stroke-linejoin="round"/>
<path id="Vector_2" d="M13.6357 5.17409C14.0871 5.71992 14.3187 6.41458 14.285 7.12214C14.3187 7.8297 14.0871 8.52436 13.6357 9.07019" stroke="var(--stroke-0, #1D2129)" stroke-width="1.2987" stroke-linecap="round" stroke-linejoin="round"/>
<path id="Vector_3" d="M3.8961 4.52553H1.94805C1.24069 4.52553 0.649351 5.11687 0.649351 5.82424V8.42164C0.649351 9.12899 1.24069 9.72034 1.94805 9.72034H3.8961L8.97403 13.3697C9.81208 13.9495 11.0163 13.339 11.039 12.3177V1.92811C11.0633 0.906236 9.9313 0.294691 9.09091 0.876158L3.8961 4.52553Z" stroke="var(--stroke-0, #1D2129)" stroke-width="1.2987" stroke-linecap="round" stroke-linejoin="round"/>
</g>
</svg>
